<svg xmlns="http://www.w3.org/2000/svg" viewBox="0 0 24 24" id="top-community-voice-medium" data-supported-dps="24x24" fill="currentColor">
  <path d="M13.6 12c0 .48-.21.93-.61 1.26-.47.39-.78.86-.99 1.32-.21-.45-.51-.9-.96-1.3l-.04-.04c-.38-.31-.59-.76-.59-1.24 0-.88.72-1.6 1.6-1.6s1.6.72 1.6 1.6zm9.4 0c0 4.42-3.58 8-8 8H9c-4.42 0-8-3.58-8-8s3.58-8 8-8h6c4.42 0 8 3.58 8 8zm-9.29-4.3a.746.746 0 00.98-.4l.52-1.26c.16-.38-.02-.82-.4-.98s-.82.02-.98.4l-.52 1.26c-.16.38.02.82.4.98zM8.78 6.04L9.3 7.3a.746.746 0 00.98.4c.38-.16.56-.6.4-.98l-.52-1.26c-.16-.38-.6-.56-.98-.4s-.56.6-.4.98zm-1.07 7.68a.76.76 0 00-.98-.41l-1.26.53c-.38.16-.56.6-.41.98a.746.746 0 00.98.4l1.26-.52c.38-.16.56-.6.41-.98zM7.3 9.33L6.04 8.8a.754.754 0 00-.98.41c-.16.38.02.82.41.98l1.26.52a.746.746 0 10.57-1.38zm6.2 7.68h-3v.5c0 .83.67 1.5 1.5 1.5s1.5-.67 1.5-1.5v-.5zm2-5c0-1.93-1.57-3.5-3.49-3.5s-3.49 1.57-3.49 3.5c0 1.09.5 2.07 1.29 2.71l.02.02c.41.37.57.89.64 1.27h3.09c.07-.39.24-.92.67-1.29a3.48 3.48 0 001.29-2.71zm3.04 1.83l-1.26-.53a.746.746 0 00-.98.41c-.16.39.02.82.41.98l1.26.52a.746.746 0 10.57-1.38zm.42-4.64a.763.763 0 00-.98-.41l-1.26.52c-.38.16-.56.6-.41.98.12.29.4.46.69.46.1 0 .19-.01.29-.05l1.26-.52c.38-.16.56-.6.41-.98z" fill-rule="evenodd"></path>
</svg>