<?xml version="1.0" encoding="UTF-8"?>
<!DOCTYPE svg PUBLIC "-//W3C//DTD SVG 1.1//EN" "http://www.w3.org/Graphics/SVG/1.1/DTD/svg11.dtd">
<!-- Creator: CorelDRAW (Evaluation Version) -->
<svg xmlns="http://www.w3.org/2000/svg" xml:space="preserve" width="8.5in" height="11in" version="1.1" style="shape-rendering:geometricPrecision; text-rendering:geometricPrecision; image-rendering:optimizeQuality; fill-rule:evenodd; clip-rule:evenodd"
viewBox="0 0 8500 11000"
 xmlns:xlink="http://www.w3.org/1999/xlink"
 xmlns:xodm="http://www.corel.com/coreldraw/odm/2003">
 <defs>
  <style type="text/css">
   <![CDATA[
    .fil1 {fill:#FEFEFE}
    .fil0 {fill:url(#id0)}
   ]]>
  </style>
  <linearGradient id="id0" gradientUnits="userSpaceOnUse" x1="4012.08" y1="4807.57" x2="4112.08" y2="4807.57">
   <stop offset="0" style="stop-opacity:1; stop-color:#3E4095"/>
   <stop offset="1" style="stop-opacity:1; stop-color:#0098DA"/>
  </linearGradient>
 </defs>
 <g id="Layer_x0020_1">
  <metadata id="CorelCorpID_0Corel-Layer"/>
  <circle class="fil0" cx="4062.08" cy="4807.57" r="50"/>
  <path class="fil1" d="M4047.1 4788.96c-0.37,-1.52 1.06,-1.95 1.96,-2.51l8.29 -5.41c2.48,-1.54 4.41,-1.01 6.64,0.47 0.67,0.44 9.39,5.89 9.61,6.45 0.34,0.86 -0.29,1.18 -0.97,1.22 -2.71,0.16 -5.8,-0.04 -8.56,-0.01 -2.39,0.02 -15.87,0.27 -16.97,-0.21zm52.98 10.87c0.67,-7.26 -2.56,-8.91 -6.82,-11.61l-27.04 -17.55c-5.76,-3.79 -6,-3.83 -11.88,0.06l-16.2 10.55c-3.59,2.27 -7.25,4.64 -10.82,7.01 -1.88,1.24 -3.92,2.28 -5.09,3.88 -1.41,1.92 -1.94,4.4 -1.64,7.66l79.49 -0z"/>
  <path class="fil1" d="M4051.94 4810.68l2.51 0c0.11,5.59 -0.19,23.26 0.06,25.65l12.18 0.01c0.15,-8.09 -0.15,-17.79 0.04,-25.66l2.67 -0c0,-8.01 -0.96,-7.1 -8.75,-7.1 -4.01,0 -8.7,-1.19 -8.7,4.17l-0.01 2.94z"/>
  <path class="fil1" d="M4031.81 4810.7c0.38,0.23 0.2,1.85 0.21,2.89l0 22.67 12.11 0 0.02 -25.22c0.09,-0.42 0.01,-0.16 0.18,-0.38l2.41 0.03c0,-2.87 0.21,-5.7 -1.82,-6.74 -1.25,-0.64 -5.32,-0.39 -6.96,-0.38 -7.69,0.07 -8.68,-0.95 -8.68,7.1l2.53 0.03z"/>
  <path class="fil1" d="M4080.54 4803.57c-5.65,0 -5.92,0.55 -5.93,7.12l2.68 -0.01c0.13,7.41 0.02,17.89 0.08,25.65l12 -0.01 0.04 -25.62 2.66 -0.01c0,-2.93 0.44,-6.74 -3.02,-7.08 -1.93,-0.19 -6.12,-0.03 -8.5,-0.03z"/>
  <path class="fil1" d="M4044.33 4810.65c-0.17,0.22 -0.09,-0.04 -0.18,0.38l-0.02 25.22 -12.11 -0 -0 -22.67c-0,-1.04 0.17,-2.65 -0.21,-2.89 0.35,5.12 -0.33,23.31 0.15,25.65 0.96,0.24 11.64,0.23 12.33,-0.05l0.05 -25.64z"/>
 </g>
</svg>
