<svg xmlns="http://www.w3.org/2000/svg" viewBox="0 0 16 16" id="app-ads-small" aria-hidden="true" role="none" data-supported-dps="16x16" fill="currentColor">
  <path d="M14.28 6.33l1.19-1.19c.35.9.53 1.87.53 2.86a8.022 8.022 0 01-4.94 7.39c-1.46.61-3.07.76-4.62.46s-2.98-1.07-4.1-2.19A7.986 7.986 0 01.61 4.94 8.022 8.022 0 018 0c.99 0 1.95.18 2.86.53L9.67 1.72a6.447 6.447 0 00-5.28.88C3.32 3.31 2.49 4.33 2 5.52a6.502 6.502 0 004.74 8.87c1.26.25 2.57.12 3.76-.37s2.2-1.33 2.92-2.39a6.55 6.55 0 001.1-3.61c0-.57-.07-1.13-.22-1.67zM8 4c.41 0 .81.06 1.18.18l.02.14L8.02 5.5H8a2.5 2.5 0 000 5A2.5 2.5 0 0010.5 8v-.03l1.18-1.18.14.02A3.999 3.999 0 018 11.99c-2.21 0-4-1.79-4-4s1.79-4 4-4zm5.2 2l-1.87-.26-2.8 2.8c-.29.29-.77.29-1.06 0a.754.754 0 010-1.06l2.8-2.8-.26-1.87 2.8-2.8.29 2.91 2.91.29-2.8 2.8z" fill="currentColor" fill-rule="evenodd"></path>
</svg>